<svg xmlns="http://www.w3.org/2000/svg" viewBox="0 0 657.69 161.79" class="prov-graph" font-family="&#39;Helvetica Neue&#39;, Helvetica, Arial, sans-serif">
<defs><marker id="arrow-8B0000" viewBox="0 0 10 10" refX="9" refY="5" markerWidth="8" markerHeight="8" markerUnits="userSpaceOnUse" orient="auto"><path d="M0,0 L10,5 L0,10 z" fill="#8B0000"/></marker></defs>
<g class="prov-bundle"><rect x="-2" y="-2" width="125.73" height="165.79" rx="8" ry="8" fill="aliceblue" stroke="#9aa7b4"/><text x="4" y="10" font-size="10" fill="#333333">ex:bundle1</text></g>
<g class="prov-bundle"><rect x="125.73" y="-2" width="125.73" height="165.79" rx="8" ry="8" fill="aliceblue" stroke="#9aa7b4"/><text x="131.73" y="10" font-size="10" fill="#333333">ex:bundle2</text></g>
<g class="prov-edge"><path d="M 60.87 115.59 L 60.87 88.59 L 60.87 61.59" fill="none" stroke="#8B0000" stroke-width="1.5" stroke-linejoin="round" stroke-linecap="round" marker-end="url(#arrow-8B0000)"/><text x="60.87" y="88.59" text-anchor="middle" dominant-baseline="central" font-size="10" fill="red">used</text></g>
<g class="prov-edge"><path d="M 188.6 115.59 L 188.6 88.59 L 188.6 61.59" fill="none" stroke="#8B0000" stroke-width="1.5" stroke-linejoin="round" stroke-linecap="round" marker-end="url(#arrow-8B0000)"/><text x="188.6" y="88.59" text-anchor="middle" dominant-baseline="central" font-size="10" fill="red">used</text></g>
<g class="prov-edge"><path d="M 347.79 118.19 L 347.79 88.59 L 347.79 61.59" fill="none" stroke="gray" stroke-width="1.5" stroke-linejoin="round" stroke-linecap="round" stroke-dasharray="4 3"/></g>
<g class="prov-edge"><path d="M 556.39 118.19 L 556.39 88.59 L 556.39 61.59" fill="none" stroke="gray" stroke-width="1.5" stroke-linejoin="round" stroke-linecap="round" stroke-dasharray="4 3"/></g>
<g class="prov-annotation"><path d="M 258.49 118.19 L 425.09 118.19 L 437.09 130.19 L 437.09 147.19 L 258.49 147.19 Z M 425.09 118.19 L 425.09 130.19 L 437.09 130.19" fill="#ffffff" stroke="gray"/><text x="270.49" y="132.69" text-anchor="start" dominant-baseline="central" font-size="10" fill="black"><tspan x="270.49" dy="0">prov:type = prov:Bundle</tspan></text></g>
<g class="prov-annotation"><path d="M 467.09 118.19 L 633.69 118.19 L 645.69 130.19 L 645.69 147.19 L 467.09 147.19 Z M 633.69 118.19 L 633.69 130.19 L 645.69 130.19" fill="#ffffff" stroke="gray"/><text x="479.09" y="132.69" text-anchor="start" dominant-baseline="central" font-size="10" fill="black"><tspan x="479.09" dy="0">prov:type = prov:Bundle</tspan></text></g>
<a href="http://example.org/bundle1"><g class="prov-node prov-entity"><title>ex:bundle1
prov:type = prov:Bundle</title><ellipse cx="347.79" cy="36.8" rx="80.33" ry="24.8" fill="#FFFC87" stroke="#808080"/><text x="347.79" y="36.8" text-anchor="middle" dominant-baseline="central" font-size="14" fill="black"><tspan x="347.79" dy="0">ex:bundle1</tspan></text></g></a>
<a href="http://example.org/bundle2"><g class="prov-node prov-entity"><title>ex:bundle2
prov:type = prov:Bundle</title><ellipse cx="556.39" cy="36.8" rx="80.33" ry="24.8" fill="#FFFC87" stroke="#808080"/><text x="556.39" y="36.8" text-anchor="middle" dominant-baseline="central" font-size="14" fill="black"><tspan x="556.39" dy="0">ex:bundle2</tspan></text></g></a>
<a href="http://example.org/e1"><g class="prov-node prov-entity"><title>ex:e1</title><ellipse cx="60.87" cy="36.8" rx="48.87" ry="24.8" fill="#FFFC87" stroke="#808080"/><text x="60.87" y="36.8" text-anchor="middle" dominant-baseline="central" font-size="14" fill="black"><tspan x="60.87" dy="0">ex:e1</tspan></text></g></a>
<a href="http://example.org/a1"><g class="prov-node prov-activity"><title>ex:a1</title><rect x="27.17" y="115.59" width="67.4" height="34.2" fill="#9FB1FC" stroke="#0000FF"/><text x="60.87" y="132.69" text-anchor="middle" dominant-baseline="central" font-size="14" fill="black"><tspan x="60.87" dy="0">ex:a1</tspan></text></g></a>
<a href="http://example.org/a1"><g class="prov-node prov-entity"><title>ex:a1</title><ellipse cx="188.6" cy="36.8" rx="48.87" ry="24.8" fill="#FFFC87" stroke="#808080"/><text x="188.6" y="36.8" text-anchor="middle" dominant-baseline="central" font-size="14" fill="black"><tspan x="188.6" dy="0">ex:a1</tspan></text></g></a>
<a href="http://example.org/e1"><g class="prov-node prov-activity"><title>ex:e1</title><rect x="154.9" y="115.59" width="67.4" height="34.2" fill="#9FB1FC" stroke="#0000FF"/><text x="188.6" y="132.69" text-anchor="middle" dominant-baseline="central" font-size="14" fill="black"><tspan x="188.6" dy="0">ex:e1</tspan></text></g></a>
</svg>
