<svg xmlns="http://www.w3.org/2000/svg" viewBox="0 0 670.28 161.79" class="prov-graph" font-family="&#39;Helvetica Neue&#39;, Helvetica, Arial, sans-serif">
<defs><marker id="arrow-8B0000" viewBox="0 0 10 10" refX="9" refY="5" markerWidth="8" markerHeight="8" markerUnits="userSpaceOnUse" orient="auto"><path d="M0,0 L10,5 L0,10 z" fill="#8B0000"/></marker></defs>
<g class="prov-bundle"><rect x="-2" y="-2" width="125.73" height="165.79" rx="8" ry="8" fill="aliceblue" stroke="#9aa7b4"/><text x="4" y="10" font-size="10" fill="#333333">ex:bundle1</text></g>
<g class="prov-bundle"><rect x="125.73" y="-2" width="138.32" height="165.79" rx="8" ry="8" fill="aliceblue" stroke="#9aa7b4"/><text x="131.73" y="10" font-size="10" fill="#333333">ex:bundle2</text></g>
<g class="prov-edge"><path d="M 60.87 115.59 L 60.87 88.59 L 60.87 61.59" fill="none" stroke="#8B0000" stroke-width="1.5" stroke-linejoin="round" stroke-linecap="round" marker-end="url(#arrow-8B0000)"/><text x="60.87" y="88.59" text-anchor="middle" dominant-baseline="central" font-size="10" fill="red">used</text></g>
<g class="prov-edge"><path d="M 194.89 115.59 L 194.89 88.59 L 194.89 61.59" fill="none" stroke="#8B0000" stroke-width="1.5" stroke-linejoin="round" stroke-linecap="round" marker-end="url(#arrow-8B0000)"/><text x="194.89" y="88.59" text-anchor="middle" dominant-baseline="central" font-size="10" fill="red">used</text></g>
<g class="prov-edge"><path d="M 360.38 118.19 L 360.38 88.59 L 360.38 61.59" fill="none" stroke="gray" stroke-width="1.5" stroke-linejoin="round" stroke-linecap="round" stroke-dasharray="4 3"/></g>
<g class="prov-edge"><path d="M 568.98 118.19 L 568.98 88.59 L 568.98 61.59" fill="none" stroke="gray" stroke-width="1.5" stroke-linejoin="round" stroke-linecap="round" stroke-dasharray="4 3"/></g>
<g class="prov-annotation"><path d="M 271.08 118.19 L 437.68 118.19 L 449.68 130.19 L 449.68 147.19 L 271.08 147.19 Z M 437.68 118.19 L 437.68 130.19 L 449.68 130.19" fill="#ffffff" stroke="gray"/><text x="283.08" y="132.69" text-anchor="start" dominant-baseline="central" font-size="10" fill="black"><tspan x="283.08" dy="0">prov:type = prov:Bundle</tspan></text></g>
<g class="prov-annotation"><path d="M 479.68 118.19 L 646.28 118.19 L 658.28 130.19 L 658.28 147.19 L 479.68 147.19 Z M 646.28 118.19 L 646.28 130.19 L 658.28 130.19" fill="#ffffff" stroke="gray"/><text x="491.68" y="132.69" text-anchor="start" dominant-baseline="central" font-size="10" fill="black"><tspan x="491.68" dy="0">prov:type = prov:Bundle</tspan></text></g>
<a href="http://example.org/bundle1"><g class="prov-node prov-entity"><title>ex:bundle1
prov:type = prov:Bundle</title><ellipse cx="360.38" cy="36.8" rx="80.33" ry="24.8" fill="#FFFC87" stroke="#808080"/><text x="360.38" y="36.8" text-anchor="middle" dominant-baseline="central" font-size="14" fill="black"><tspan x="360.38" dy="0">ex:bundle1</tspan></text></g></a>
<a href="http://example.org/bundle2"><g class="prov-node prov-entity"><title>ex:bundle2
prov:type = prov:Bundle</title><ellipse cx="568.98" cy="36.8" rx="80.33" ry="24.8" fill="#FFFC87" stroke="#808080"/><text x="568.98" y="36.8" text-anchor="middle" dominant-baseline="central" font-size="14" fill="black"><tspan x="568.98" dy="0">ex:bundle2</tspan></text></g></a>
<a href="http://example.org/e1"><g class="prov-node prov-entity"><title>ex:e1</title><ellipse cx="60.87" cy="36.8" rx="48.87" ry="24.8" fill="#FFFC87" stroke="#808080"/><text x="60.87" y="36.8" text-anchor="middle" dominant-baseline="central" font-size="14" fill="black"><tspan x="60.87" dy="0">ex:e1</tspan></text></g></a>
<a href="http://example.org/a1"><g class="prov-node prov-activity"><title>ex:a1</title><rect x="27.17" y="115.59" width="67.4" height="34.2" fill="#9FB1FC" stroke="#0000FF"/><text x="60.87" y="132.69" text-anchor="middle" dominant-baseline="central" font-size="14" fill="black"><tspan x="60.87" dy="0">ex:a1</tspan></text></g></a>
<a href="http://example.org/ee1"><g class="prov-node prov-entity"><title>ex:ee1</title><ellipse cx="194.89" cy="36.8" rx="55.16" ry="24.8" fill="#FFFC87" stroke="#808080"/><text x="194.89" y="36.8" text-anchor="middle" dominant-baseline="central" font-size="14" fill="black"><tspan x="194.89" dy="0">ex:ee1</tspan></text></g></a>
<a href="http://example.org/aa1"><g class="prov-node prov-activity"><title>ex:aa1</title><rect x="156.85" y="115.59" width="76.08" height="34.2" fill="#9FB1FC" stroke="#0000FF"/><text x="194.89" y="132.69" text-anchor="middle" dominant-baseline="central" font-size="14" fill="black"><tspan x="194.89" dy="0">ex:aa1</tspan></text></g></a>
</svg>
