<svg xmlns="http://www.w3.org/2000/svg" viewBox="0 0 218.33 398.6" class="prov-graph" font-family="&#39;Helvetica Neue&#39;, Helvetica, Arial, sans-serif">
<defs><marker id="arrow-FED37F" viewBox="0 0 10 10" refX="9" refY="5" markerWidth="8" markerHeight="8" markerUnits="userSpaceOnUse" orient="auto"><path d="M0,0 L10,5 L0,10 z" fill="#FED37F"/></marker><marker id="arrow-gray" viewBox="0 0 10 10" refX="9" refY="5" markerWidth="8" markerHeight="8" markerUnits="userSpaceOnUse" orient="auto"><path d="M0,0 L10,5 L0,10 z" fill="gray"/></marker></defs>
<g class="prov-edge"><path d="M 108.24 336.4 L 108.24 309.4 L 108.24 282.4" fill="none" stroke="#FED37F" stroke-width="1.5" stroke-linejoin="round" stroke-linecap="round"/><text x="108.24" y="309.4" text-anchor="middle" dominant-baseline="central" font-size="10" fill="#FED37F">actedOnBehalfOf</text></g>
<g class="prov-edge"><path d="M 112.74 275.04 L 149.89 251.4 L 149.89 229.4" fill="none" stroke="#FED37F" stroke-width="1.5" stroke-linejoin="round" stroke-linecap="round" marker-end="url(#arrow-FED37F)"/></g>
<g class="prov-edge"><path d="M 103.74 276.23 L 36.8 251.4 L 36.8 204.3 L 36.8 152.2 L 36.8 120.7 L 36.8 89.2 L 49.16 54.2" fill="none" stroke="gray" stroke-width="1.5" stroke-linejoin="round" stroke-linecap="round" marker-end="url(#arrow-gray)"/><text x="36.8" y="152.2" text-anchor="middle" dominant-baseline="central" font-size="10" fill="dimgray">activity</text></g>
<g class="prov-edge"><path d="M 149.89 179.2 L 149.89 152.2 L 149.89 125.2" fill="none" stroke="#FED37F" stroke-width="1.5" stroke-linejoin="round" stroke-linecap="round"/><text x="149.89" y="152.2" text-anchor="middle" dominant-baseline="central" font-size="10" fill="#FED37F">actedOnBehalfOf</text></g>
<g class="prov-edge"><path d="M 152.52 116.2 L 168.29 89.2 L 168.29 62.2" fill="none" stroke="#FED37F" stroke-width="1.5" stroke-linejoin="round" stroke-linecap="round" marker-end="url(#arrow-FED37F)"/></g>
<g class="prov-edge"><path d="M 145.39 118.03 L 96.85 89.2 L 68.87 54.2" fill="none" stroke="gray" stroke-width="1.5" stroke-linejoin="round" stroke-linecap="round" marker-end="url(#arrow-gray)"/><text x="96.85" y="89.2" text-anchor="middle" dominant-baseline="central" font-size="10" fill="dimgray">activity</text></g>
<g class="prov-blank"><circle cx="108.24" cy="277.9" r="4.5" fill="gray" stroke="gray"/></g>
<g class="prov-blank"><circle cx="149.89" cy="120.7" r="4.5" fill="gray" stroke="gray"/></g>
<a href="http://example.org/ag1"><g class="prov-node prov-agent"><title>ex:ag1</title><polygon points="70.2,386.6 146.28,386.6 146.28,352.4 108.24,336.4 70.2,352.4" fill="#FED37F"/><text x="108.24" y="369.5" text-anchor="middle" dominant-baseline="central" font-size="14" fill="black"><tspan x="108.24" dy="0">ex:ag1</tspan></text></g></a>
<a href="http://example.org/ag2"><g class="prov-node prov-agent"><title>ex:ag2</title><polygon points="111.85,229.4 187.93,229.4 187.93,195.2 149.89,179.2 111.85,195.2" fill="#FED37F"/><text x="149.89" y="212.3" text-anchor="middle" dominant-baseline="central" font-size="14" fill="black"><tspan x="149.89" dy="0">ex:ag2</tspan></text></g></a>
<a href="http://example.org/ag3"><g class="prov-node prov-agent"><title>ex:ag3</title><polygon points="130.25,62.2 206.33,62.2 206.33,28 168.29,12 130.25,28" fill="#FED37F"/><text x="168.29" y="45.1" text-anchor="middle" dominant-baseline="central" font-size="14" fill="black"><tspan x="168.29" dy="0">ex:ag3</tspan></text></g></a>
<a href="http://example.org/act"><g class="prov-node prov-activity"><title>ex:act</title><rect x="17.16" y="20" width="76.08" height="34.2" fill="#9FB1FC" stroke="#0000FF"/><text x="55.2" y="37.1" text-anchor="middle" dominant-baseline="central" font-size="14" fill="black"><tspan x="55.2" dy="0">ex:act</tspan></text></g></a>
</svg>
