<svg xmlns="http://www.w3.org/2000/svg" viewBox="0 0 233.08 265.99" class="prov-graph" font-family="&#39;Helvetica Neue&#39;, Helvetica, Arial, sans-serif">
<defs><marker id="arrow-FED37F" viewBox="0 0 10 10" refX="9" refY="5" markerWidth="8" markerHeight="8" markerUnits="userSpaceOnUse" orient="auto"><path d="M0,0 L10,5 L0,10 z" fill="#FED37F"/></marker><marker id="arrow-darkgreen" viewBox="0 0 10 10" refX="9" refY="5" markerWidth="8" markerHeight="8" markerUnits="userSpaceOnUse" orient="auto"><path d="M0,0 L10,5 L0,10 z" fill="darkgreen"/></marker></defs>
<g class="prov-edge"><path d="M 139.74 204.4 L 168.38 177.4 L 168.38 150.4" fill="none" stroke="darkgreen" stroke-width="1.5" stroke-linejoin="round" stroke-linecap="round" marker-end="url(#arrow-darkgreen)"/><text x="168.38" y="177.4" text-anchor="middle" dominant-baseline="central" font-size="10" fill="darkgreen">wasGeneratedBy</text></g>
<g class="prov-edge"><path d="M 168.38 116.2 L 168.38 89.2 L 139.91 62.2" fill="none" stroke="#FED37F" stroke-width="1.5" stroke-linejoin="round" stroke-linecap="round" marker-end="url(#arrow-FED37F)"/><text x="168.38" y="89.2" text-anchor="middle" dominant-baseline="central" font-size="10" fill="#FED37F">wasAssociatedWith</text></g>
<g class="prov-edge"><path d="M 87.14 204.4 L 58.5 177.4 L 58.5 133.3 L 58.5 89.2 L 86.97 62.2" fill="none" stroke="#FED37F" stroke-width="1.5" stroke-linejoin="round" stroke-linecap="round" marker-end="url(#arrow-FED37F)"/><text x="58.5" y="133.3" text-anchor="middle" dominant-baseline="central" font-size="10" fill="#FED37F">wasAttributedTo</text></g>
<a href="http://example.org/article"><g class="prov-node prov-entity"><title>ex:article</title><ellipse cx="113.44" cy="229.2" rx="80.33" ry="24.8" fill="#FFFC87" stroke="#808080"/><text x="113.44" y="229.2" text-anchor="middle" dominant-baseline="central" font-size="14" fill="black"><tspan x="113.44" dy="0">ex:article</tspan></text></g></a>
<a href="http://example.org/edit"><g class="prov-node prov-activity"><title>ex:edit</title><rect x="126" y="116.2" width="84.76" height="34.2" fill="#9FB1FC" stroke="#0000FF"/><text x="168.38" y="133.3" text-anchor="middle" dominant-baseline="central" font-size="14" fill="black"><tspan x="168.38" dy="0">ex:edit</tspan></text></g></a>
<a href="http://example.org/alice"><g class="prov-node prov-agent"><title>ex:alice</title><polygon points="66.72,62.2 160.16,62.2 160.16,28 113.44,12 66.72,28" fill="#FED37F"/><text x="113.44" y="45.1" text-anchor="middle" dominant-baseline="central" font-size="14" fill="black"><tspan x="113.44" dy="0">ex:alice</tspan></text></g></a>
</svg>
